<mxfile host="app.diagrams.net" agent="Mozilla/5.0 (Windows NT 10.0; Win64; x64) AppleWebKit/537.36 (KHTML, like Gecko) Chrome/137.0.0.0 Safari/537.36" version="27.1.6">
  <diagram name="Page-1" id="Z5o3tsb7vgWjwU5WfF3z">
    <mxGraphModel dx="1603" dy="945" grid="1" gridSize="10" guides="1" tooltips="1" connect="1" arrows="1" fold="1" page="1" pageScale="1" pageWidth="850" pageHeight="1100" math="0" shadow="0">
      <root>
        <mxCell id="0" />
        <mxCell id="1" parent="0" />
        <mxCell id="sIYICoTKMcO0S5hsLpK0-11" style="edgeStyle=orthogonalEdgeStyle;rounded=0;orthogonalLoop=1;jettySize=auto;html=1;" edge="1" parent="1" source="sIYICoTKMcO0S5hsLpK0-1" target="sIYICoTKMcO0S5hsLpK0-10">
          <mxGeometry relative="1" as="geometry" />
        </mxCell>
        <mxCell id="sIYICoTKMcO0S5hsLpK0-1" value="" style="image;html=1;image=img/lib/clip_art/computers/Server_128x128.png" vertex="1" parent="1">
          <mxGeometry x="460" y="240" width="220" height="110" as="geometry" />
        </mxCell>
        <mxCell id="sIYICoTKMcO0S5hsLpK0-2" value="&lt;font style=&quot;font-size: 20px;&quot;&gt;API&amp;nbsp;&lt;/font&gt;&lt;div&gt;&lt;font style=&quot;font-size: 20px;&quot;&gt;Server&lt;/font&gt;&lt;/div&gt;" style="text;html=1;align=center;verticalAlign=middle;resizable=0;points=[];autosize=1;rotation=-1;" vertex="1" parent="1">
          <mxGeometry x="530" y="260" width="80" height="60" as="geometry" />
        </mxCell>
        <mxCell id="sIYICoTKMcO0S5hsLpK0-27" style="rounded=0;orthogonalLoop=1;jettySize=auto;html=1;entryX=0.5;entryY=0;entryDx=0;entryDy=0;" edge="1" parent="1" target="sIYICoTKMcO0S5hsLpK0-7">
          <mxGeometry relative="1" as="geometry">
            <mxPoint x="220" y="120" as="targetPoint" />
            <mxPoint x="750" y="130" as="sourcePoint" />
            <Array as="points">
              <mxPoint x="220" y="120" />
            </Array>
          </mxGeometry>
        </mxCell>
        <mxCell id="sIYICoTKMcO0S5hsLpK0-7" value="" style="image;html=1;image=img/lib/clip_art/computers/Monitor_Tower_128x128.png" vertex="1" parent="1">
          <mxGeometry x="160" y="240" width="120" height="80" as="geometry" />
        </mxCell>
        <mxCell id="sIYICoTKMcO0S5hsLpK0-8" style="edgeStyle=orthogonalEdgeStyle;rounded=0;orthogonalLoop=1;jettySize=auto;html=1;entryX=0.136;entryY=0.364;entryDx=0;entryDy=0;entryPerimeter=0;" edge="1" parent="1" source="sIYICoTKMcO0S5hsLpK0-7" target="sIYICoTKMcO0S5hsLpK0-1">
          <mxGeometry relative="1" as="geometry" />
        </mxCell>
        <mxCell id="sIYICoTKMcO0S5hsLpK0-9" value="&lt;font style=&quot;font-size: 18px;&quot;&gt;Client&lt;/font&gt;" style="text;html=1;align=center;verticalAlign=middle;resizable=0;points=[];autosize=1;strokeColor=none;fillColor=none;" vertex="1" parent="1">
          <mxGeometry x="160" y="250" width="70" height="40" as="geometry" />
        </mxCell>
        <mxCell id="sIYICoTKMcO0S5hsLpK0-14" style="edgeStyle=orthogonalEdgeStyle;rounded=0;orthogonalLoop=1;jettySize=auto;html=1;" edge="1" parent="1" source="sIYICoTKMcO0S5hsLpK0-10" target="sIYICoTKMcO0S5hsLpK0-12">
          <mxGeometry relative="1" as="geometry" />
        </mxCell>
        <mxCell id="sIYICoTKMcO0S5hsLpK0-10" value="" style="verticalLabelPosition=bottom;sketch=0;aspect=fixed;html=1;verticalAlign=top;strokeColor=none;align=center;outlineConnect=0;shape=mxgraph.citrix.middleware;" vertex="1" parent="1">
          <mxGeometry x="536.47" y="430" width="67.06" height="40" as="geometry" />
        </mxCell>
        <mxCell id="sIYICoTKMcO0S5hsLpK0-15" style="edgeStyle=orthogonalEdgeStyle;rounded=0;orthogonalLoop=1;jettySize=auto;html=1;" edge="1" parent="1" source="sIYICoTKMcO0S5hsLpK0-12" target="sIYICoTKMcO0S5hsLpK0-13">
          <mxGeometry relative="1" as="geometry" />
        </mxCell>
        <mxCell id="sIYICoTKMcO0S5hsLpK0-12" value="" style="verticalLabelPosition=bottom;sketch=0;aspect=fixed;html=1;verticalAlign=top;strokeColor=none;align=center;outlineConnect=0;shape=mxgraph.citrix.middleware;" vertex="1" parent="1">
          <mxGeometry x="370" y="430" width="67.06" height="40" as="geometry" />
        </mxCell>
        <mxCell id="sIYICoTKMcO0S5hsLpK0-13" value="" style="verticalLabelPosition=bottom;sketch=0;aspect=fixed;html=1;verticalAlign=top;strokeColor=none;align=center;outlineConnect=0;shape=mxgraph.citrix.middleware;" vertex="1" parent="1">
          <mxGeometry x="200" y="430" width="67.06" height="40" as="geometry" />
        </mxCell>
        <mxCell id="sIYICoTKMcO0S5hsLpK0-16" value="&lt;font style=&quot;font-size: 16px;&quot;&gt;Auth Middleware&lt;/font&gt;" style="text;html=1;align=center;verticalAlign=middle;resizable=0;points=[];autosize=1;strokeColor=none;fillColor=none;" vertex="1" parent="1">
          <mxGeometry x="340" y="468" width="140" height="30" as="geometry" />
        </mxCell>
        <mxCell id="sIYICoTKMcO0S5hsLpK0-17" value="&lt;font style=&quot;font-size: 18px;&quot;&gt;Rate Limiter&lt;/font&gt;" style="text;html=1;align=center;verticalAlign=middle;resizable=0;points=[];autosize=1;strokeColor=none;fillColor=none;" vertex="1" parent="1">
          <mxGeometry x="580" y="420" width="120" height="40" as="geometry" />
        </mxCell>
        <mxCell id="sIYICoTKMcO0S5hsLpK0-18" value="&lt;font style=&quot;font-size: 16px;&quot;&gt;Express Validator/Zoi&lt;/font&gt;" style="text;html=1;align=center;verticalAlign=middle;resizable=0;points=[];autosize=1;strokeColor=none;fillColor=none;" vertex="1" parent="1">
          <mxGeometry x="40" y="435" width="170" height="30" as="geometry" />
        </mxCell>
        <mxCell id="sIYICoTKMcO0S5hsLpK0-26" style="edgeStyle=orthogonalEdgeStyle;rounded=0;orthogonalLoop=1;jettySize=auto;html=1;" edge="1" parent="1" source="sIYICoTKMcO0S5hsLpK0-19">
          <mxGeometry relative="1" as="geometry">
            <mxPoint x="750" y="130" as="targetPoint" />
          </mxGeometry>
        </mxCell>
        <object label="" id="sIYICoTKMcO0S5hsLpK0-19">
          <mxCell style="shape=datastore;whiteSpace=wrap;html=1;" vertex="1" parent="1">
            <mxGeometry x="570" y="655" width="60" height="60" as="geometry" />
          </mxCell>
        </object>
        <mxCell id="sIYICoTKMcO0S5hsLpK0-23" style="edgeStyle=orthogonalEdgeStyle;rounded=0;orthogonalLoop=1;jettySize=auto;html=1;entryX=0;entryY=0.5;entryDx=0;entryDy=0;" edge="1" parent="1" source="sIYICoTKMcO0S5hsLpK0-21" target="sIYICoTKMcO0S5hsLpK0-19">
          <mxGeometry relative="1" as="geometry" />
        </mxCell>
        <mxCell id="sIYICoTKMcO0S5hsLpK0-21" value="" style="sketch=0;aspect=fixed;pointerEvents=1;shadow=0;dashed=0;html=1;strokeColor=none;labelPosition=center;verticalLabelPosition=bottom;verticalAlign=top;align=center;fillColor=#00188D;shape=mxgraph.mscae.enterprise.settings" vertex="1" parent="1">
          <mxGeometry x="208.53" y="660" width="50" height="50" as="geometry" />
        </mxCell>
        <mxCell id="sIYICoTKMcO0S5hsLpK0-22" style="edgeStyle=orthogonalEdgeStyle;rounded=0;orthogonalLoop=1;jettySize=auto;html=1;entryX=0.5;entryY=0.12;entryDx=0;entryDy=0;entryPerimeter=0;" edge="1" parent="1" source="sIYICoTKMcO0S5hsLpK0-13" target="sIYICoTKMcO0S5hsLpK0-21">
          <mxGeometry relative="1" as="geometry" />
        </mxCell>
        <mxCell id="sIYICoTKMcO0S5hsLpK0-24" value="&lt;font style=&quot;font-size: 16px;&quot;&gt;Controller Fx&lt;/font&gt;" style="text;html=1;align=center;verticalAlign=middle;resizable=0;points=[];autosize=1;strokeColor=none;fillColor=none;" vertex="1" parent="1">
          <mxGeometry x="173.53" y="715" width="120" height="30" as="geometry" />
        </mxCell>
        <mxCell id="sIYICoTKMcO0S5hsLpK0-25" value="&lt;font&gt;Database&lt;/font&gt;" style="text;html=1;align=center;verticalAlign=middle;resizable=0;points=[];autosize=1;strokeColor=none;fillColor=none;fontSize=16;" vertex="1" parent="1">
          <mxGeometry x="555" y="728" width="90" height="30" as="geometry" />
        </mxCell>
        <mxCell id="sIYICoTKMcO0S5hsLpK0-28" value="&lt;h2&gt;&lt;font style=&quot;font-size: 22px;&quot;&gt;API High Level Design&lt;/font&gt;&lt;/h2&gt;" style="text;html=1;align=center;verticalAlign=middle;resizable=0;points=[];autosize=1;strokeColor=none;fillColor=none;" vertex="1" parent="1">
          <mxGeometry x="320" y="8" width="260" height="70" as="geometry" />
        </mxCell>
      </root>
    </mxGraphModel>
  </diagram>
</mxfile>
